#N canvas 736 326 529 319 10;
#X msg 251 147 protocol/setup port 9998;
#X msg 228 127 protocol/setup ip localhost;
#X obj 205 217 j.modular \$1 Minuit;
#X obj 205 238 print \$1;
#X obj 205 48 loadbang;
#X obj 60 151 r remoteApp;
#X obj 205 70 t b b b;
#X obj 157 127 symbol \$1;
#X msg 157 149 name \$1;
#X connect 0 0 2 0;
#X connect 1 0 2 0;
#X connect 2 0 3 0;
#X connect 4 0 6 0;
#X connect 5 0 2 0;
#X connect 6 0 7 0;
#X connect 6 1 1 0;
#X connect 6 2 0 0;
#X connect 7 0 8 0;
#X connect 8 0 2 0;
