#N canvas 0 51 450 300 10;
#X msg 130 108 protocol/setup ip localhost;
#X msg 153 129 protocol/setup port 9999;
#X obj 107 44 loadbang;
#X obj 187 173 r localApp;
#X obj 130 206 j.modular Minuit @name \$1;
#X obj 130 228 print \$1;
#X obj 60 108 symbol \$1;
#X msg 60 130 name \$1;
#X obj 107 66 t b b b;
#X obj 49 183 print;
#X obj 44 65 bng 15 250 50 0 empty empty empty 17 7 0 10 -262144 -1
-1;
#X connect 0 0 4 0;
#X connect 1 0 4 0;
#X connect 2 0 8 0;
#X connect 3 0 4 0;
#X connect 4 0 5 0;
#X connect 6 0 7 0;
#X connect 7 0 4 0;
#X connect 7 0 9 0;
#X connect 8 0 6 0;
#X connect 8 1 0 0;
#X connect 8 2 1 0;
#X connect 10 0 6 0;
