#N canvas 228 206 450 300 10;
#X obj 66 213 *~;
#X obj 207 213 *~;
#X obj 205 89 +~ 1;
#X obj 85 184 expr~ fmod($v1 \, 1);
#X obj 226 184 expr~ 1-fmod($v1 \, 1);
#X obj 115 261 outlet~;
#X obj 153 39 inlet~;
#X obj 66 151 tabread~ \$1;
#X obj 206 152 tabread~ \$1;
#X obj 206 120 expr~ fmod($v1 \, $f2);
#X obj 343 86 inlet;
#X connect 0 0 5 0;
#X connect 1 0 5 0;
#X connect 2 0 9 0;
#X connect 3 0 0 1;
#X connect 4 0 1 1;
#X connect 6 0 3 0;
#X connect 6 0 4 0;
#X connect 6 0 2 0;
#X connect 6 0 7 0;
#X connect 7 0 0 0;
#X connect 8 0 1 0;
#X connect 9 0 8 0;
#X connect 10 0 9 1;
