#N canvas 561 227 1140 799 10;
#X declare -lib Jamoma;
#X obj 507 94 catch~ chY;
#X obj 406 97 catch~ chX;
#X obj 870 705 declare -lib Jamoma;
#N canvas 1207 510 700 272 circle 0;
#X obj 336 158 j.parameter freq @type decimal @dataspace time @unit
Hz @default 80 @range 0 15000 @description "Global rosace frequency"
;
#X floatatom 336 206 5 0 0 0 - - -, f 5;
#X obj 336 228 s rosace-freq;
#N canvas 1321 273 458 196 voices 0;
#X msg 253 69 model:address /circle.\$1;
#X obj 253 29 hradio 15 1 0 8 empty empty empty 0 -8 0 10 -262144 -1
-1 5;
#X obj 253 49 + 1;
#X obj 381 130 print;
#X obj 15 37 circle.model circle.2;
#X obj 253 89 circle.view;
#X obj 15 57 circle.model circle.3;
#X obj 15 17 circle.model circle.1;
#X obj 15 77 circle.model circle.4;
#X obj 15 97 circle.model circle.5;
#X obj 15 117 circle.model circle.6;
#X obj 15 137 circle.model circle.7;
#X obj 15 157 circle.model circle.8;
#X connect 0 0 3 0;
#X connect 0 0 5 0;
#X connect 1 0 2 0;
#X connect 2 0 0 0;
#X restore 434 86 pd voices;
#X obj 32 192 *~;
#X obj 216 192 *~;
#X obj 143 152 line~;
#X obj 143 109 dbtorms;
#X msg 143 131 \$1 10;
#X obj 146 89 hsl 128 15 0 127 0 0 empty empty empty -2 -8 0 10 -262144
-1 -1 0 1;
#X obj 143 67 + 100;
#X obj 143 19 j.parameter gain @type decimal @dataspace gain @unit
dB @range -144 0 @clipmode both @default -144 @description "Global
rosace gain";
#X obj 33 213 throw~ chX;
#X obj 215 213 throw~ chY;
#X obj 33 152 catch~ circle-X;
#X obj 215 152 catch~ circle-Y;
#X connect 0 0 1 0;
#X connect 1 0 2 0;
#X connect 4 0 12 0;
#X connect 5 0 13 0;
#X connect 6 0 4 1;
#X connect 6 0 5 1;
#X connect 7 0 8 0;
#X connect 8 0 6 0;
#X connect 9 0 7 0;
#X connect 10 0 9 0;
#X connect 11 0 10 0;
#X connect 14 0 4 0;
#X connect 15 0 5 0;
#X restore 870 725 pd circle;
#N canvas 319 179 952 885 rosace 0;
#X obj 572 211 j.model @description "Rosace Generator";
#X obj 572 188 inlet;
#X obj 572 233 outlet;
#X floatatom 107 202 5 0 0 0 - - -, f 5;
#X obj 34 236 phasor~;
#X obj 34 414 wrap~;
#X obj 117 414 wrap~;
#X obj 150 464 *~ 511;
#X obj 35 464 *~ 511;
#X obj 36 809 *~;
#X obj 150 809 *~;
#X obj 164 775 line~;
#X obj 164 732 dbtorms;
#X msg 164 754 \$1 10;
#X obj 167 713 hsl 128 15 0 127 0 0 empty empty empty -2 -8 0 10 -262144
-1 -1 8100 1;
#X obj 107 181 *;
#X obj 142 141 t b f;
#X obj 164 642 j.parameter gain @type decimal @dataspace gain @unit
dB @default 440 @range -144 0 @clipmode both @default -144 @description
"Rosace voice gain";
#X obj 142 82 j.parameter ratio @type decimal @default 1 @range 0 127
@clipmode both @description "Rosace frequency ratio";
#N canvas 625 524 450 423 make 0;
#X obj 72 82 until;
#X msg 72 32 512;
#X obj 72 123 f;
#X obj 98 124 + 1;
#X obj 72 54 t f f b;
#X msg 124 86 0;
#X obj 128 125 - 1;
#X obj 72 176 /;
#X obj 72 145 t f f;
#X obj 72 11 loadbang;
#X obj 72 214 *;
#X obj 72 236 sin;
#X obj 162 126 expr 2*acos(-1);
#X obj 94 340 tabwrite \$1-sinus;
#X connect 0 0 2 0;
#X connect 1 0 4 0;
#X connect 2 0 3 0;
#X connect 2 0 8 0;
#X connect 3 0 2 1;
#X connect 4 0 0 0;
#X connect 4 1 6 0;
#X connect 4 2 5 0;
#X connect 4 2 12 0;
#X connect 5 0 2 1;
#X connect 6 0 7 1;
#X connect 7 0 10 0;
#X connect 8 0 7 0;
#X connect 8 1 13 1;
#X connect 9 0 1 0;
#X connect 10 0 11 0;
#X connect 11 0 13 0;
#X connect 12 0 10 1;
#X restore 439 496 pd make table;
#X obj 439 476 table \$1-sinus 512;
#X obj 35 492 tabread~ \$1-sinus;
#X obj 150 492 tabread~ \$1-sinus;
#X floatatom 55 126 5 0 0 0 - - -, f 5;
#X obj 70 13 j.parameter freq @type decimal @dataspace time @unit Hz
@default 80 @range 0 15000 @description "Rosace frequency";
#X obj 803 233 print dumpout;
#X obj 324 236 phasor~;
#X obj 325 292 wrap~;
#X obj 326 342 *~ 511;
#X obj 324 256 +~ 0.3;
#X obj 326 370 tabread~ \$1-sinus;
#X obj 36 519 *~;
#X obj 150 519 *~;
#X obj 36 559 *~;
#X obj 150 559 *~;
#X obj 36 839 throw~ chX;
#X obj 150 839 throw~ chY;
#X obj 444 236 phasor~;
#X obj 445 292 wrap~;
#X obj 446 342 *~ 511;
#X floatatom 389 259 5 0 0 0 - - -, f 5;
#X obj 439 455 table \$1-modulation 512;
#X floatatom 522 155 5 0 0 0 - - -, f 5;
#X obj 522 134 *;
#X floatatom 557 75 5 0 0 0 - - -, f 5;
#X obj 557 94 t b f;
#X obj 557 41 j.parameter ratio @type decimal @default 1 @range 0 127
@clipmode both @description "Rosace frequency ratio";
#X obj 499 809 snapshot~;
#X floatatom 499 831 5 0 0 0 - - -, f 5;
#X obj 504 770 bng 15 250 50 0 empty empty empty 17 7 0 10 -262144
-1 -1;
#X obj 446 370 tabread~ \$1-sinus;
#X obj 116 378 +~ 0.25;
#X obj 444 256 +~ 0.25;
#X floatatom 505 249 5 0 0 0 - - -, f 5;
#X obj 566 815 snapshot~;
#X floatatom 566 837 5 0 0 0 - - -, f 5;
#X obj 571 776 bng 15 250 50 0 empty empty empty 17 7 0 10 -262144
-1 -1;
#X obj 446 403 *~;
#X obj 563 377 line~;
#X obj 563 334 dbtorms;
#X msg 563 356 \$1 10;
#X obj 566 314 hsl 128 15 0 127 0 0 empty empty empty -2 -8 0 10 -262144
-1 -1 5900 1;
#X obj 206 421 *~;
#X obj 182 296 line~;
#X obj 182 253 dbtorms;
#X obj 185 233 hsl 128 15 0 127 0 0 empty empty empty -2 -8 0 10 -262144
-1 -1 1900 1;
#X obj 446 424 +~ 1;
#X obj 207 446 +~ 1;
#X obj 651 371 osc~;
#X obj 651 393 *~ 1;
#X obj 651 415 *~;
#X floatatom 650 339 5 0 0 0 - - -, f 5;
#X obj 221 349 osc~;
#X obj 221 371 *~ 1;
#X obj 221 393 *~;
#X floatatom 229 328 5 0 0 0 - - -, f 5;
#X msg 182 275 \$1 100;
#X text 178 121 nombre d'harmonique;
#X text 25 105 fréquence de base;
#X text 176 209 amplitude des harmoniques;
#X text 218 737 taille globale de la forme;
#X obj 7 50 loadbang;
#X msg 9 77 120;
#X floatatom 142 124 5 0 0 0 - - -, f 5;
#X msg 9 77 120;
#X obj 248 271 loadbang;
#X msg 250 298;
#X msg 250 298 1;
#X obj 583 258 loadbang;
#X msg 585 285 1;
#X msg 585 285 4;
#X msg 85 79 3;
#X obj 164 690 + 30;
#X msg 219 166 5.4;
#X connect 0 0 2 0;
#X connect 0 1 25 0;
#X connect 1 0 0 0;
#X connect 3 0 26 0;
#X connect 4 0 5 0;
#X connect 4 0 51 0;
#X connect 5 0 8 0;
#X connect 6 0 7 0;
#X connect 7 0 22 0;
#X connect 8 0 21 0;
#X connect 9 0 35 0;
#X connect 10 0 36 0;
#X connect 11 0 9 1;
#X connect 11 0 10 1;
#X connect 12 0 13 0;
#X connect 13 0 11 0;
#X connect 14 0 12 0;
#X connect 15 0 3 0;
#X connect 16 0 15 0;
#X connect 16 1 15 1;
#X connect 17 0 92 0;
#X connect 18 0 83 0;
#X connect 21 0 31 0;
#X connect 22 0 32 0;
#X connect 23 0 15 0;
#X connect 23 0 4 0;
#X connect 23 0 43 0;
#X connect 24 0 23 0;
#X connect 26 0 29 0;
#X connect 27 0 28 0;
#X connect 28 0 30 0;
#X connect 29 0 27 0;
#X connect 30 0 62 0;
#X connect 31 0 33 0;
#X connect 32 0 34 0;
#X connect 33 0 9 0;
#X connect 33 0 47 0;
#X connect 34 0 10 0;
#X connect 34 0 54 0;
#X connect 37 0 52 0;
#X connect 38 0 39 0;
#X connect 39 0 50 0;
#X connect 40 0 29 1;
#X connect 42 0 37 0;
#X connect 43 0 42 0;
#X connect 44 0 45 0;
#X connect 45 0 43 0;
#X connect 45 1 43 1;
#X connect 46 0 44 0;
#X connect 47 0 48 0;
#X connect 49 0 47 0;
#X connect 50 0 57 0;
#X connect 51 0 6 0;
#X connect 52 0 38 0;
#X connect 53 0 52 1;
#X connect 54 0 55 0;
#X connect 56 0 54 0;
#X connect 57 0 66 0;
#X connect 58 0 70 1;
#X connect 59 0 60 0;
#X connect 60 0 58 0;
#X connect 61 0 59 0;
#X connect 62 0 67 0;
#X connect 63 0 74 1;
#X connect 64 0 76 0;
#X connect 65 0 64 0;
#X connect 66 0 34 1;
#X connect 66 0 33 1;
#X connect 67 0 32 1;
#X connect 67 0 31 1;
#X connect 68 0 69 0;
#X connect 69 0 70 0;
#X connect 70 0 57 1;
#X connect 71 0 68 0;
#X connect 72 0 73 0;
#X connect 73 0 74 0;
#X connect 74 0 62 1;
#X connect 75 0 72 0;
#X connect 76 0 63 0;
#X connect 81 0 82 0;
#X connect 81 0 91 0;
#X connect 82 0 23 0;
#X connect 83 0 16 0;
#X connect 85 0 86 0;
#X connect 87 0 75 0;
#X connect 88 0 90 0;
#X connect 90 0 61 0;
#X connect 91 0 83 0;
#X connect 92 0 14 0;
#X connect 93 0 16 0;
#X restore 870 685 pd rosace;
#X obj 633 652 +~;
#X floatatom 652 575 5 0 0 0 - - -, f 5;
#X obj 592 507 *~ 1;
#X floatatom 513 463 5 0 0 0 - - -, f 5;
#X obj 473 656 +~;
#X obj 489 606 / 100;
#X floatatom 489 587 5 0 0 0 - - -, f 5;
#X obj 827 504 osc~;
#X floatatom 826 472 5 0 0 0 - - -, f 5;
#X obj 774 573 *~, f 6;
#X obj 776 504 osc~;
#X obj 776 546 *~;
#X obj 776 477 / 1000;
#X floatatom 776 455 5 0 0 0 - - -, f 5;
#X obj 615 729 dac~ 2 1, f 10;
#X obj 228 457 noise~;
#X obj 228 529 *~;
#X obj 278 483 line~;
#X obj 278 440 dbtorms;
#X msg 278 462 \$1 10;
#X obj 281 420 hsl 128 15 0 127 0 0 empty empty empty -2 -8 0 10 -262144
-1 -1 0 1;
#X obj 228 569 lop~ 30;
#X obj 228 591 lop~ 30;
#X floatatom 285 549 5 0 0 0 - - -, f 5;
#X obj 419 199 *~ 0.2;
#X floatatom 449 177 5 0 0 0 - - -, f 5;
#X obj 425 306 *~ 0.2;
#X floatatom 458 287 5 0 0 0 - - -, f 5;
#X obj 884 520 line~;
#X obj 884 477 dbtorms;
#X msg 884 499 \$1 10;
#X obj 887 457 hsl 128 15 0 100 0 0 empty empty empty -2 -8 0 10 -262144
-1 -1 11100 1;
#X obj 406 138 min~ 1;
#X obj 407 349 max~ -1;
#X obj 505 361 max~ -1;
#X text 769 441 freq;
#X text 795 409 oscillation verticale lente;
#X text 886 443 amplitude;
#X text 239 398 bruit en X;
#X text 282 534 freq de coupure;
#X text 482 569 shift horizontal;
#X text 645 557 shift vertical;
#X floatatom 940 506 5 0 0 0 - - -, f 5;
#X floatatom 444 119 5 0 0 0 - - -, f 5;
#X floatatom 543 341 5 0 0 0 - - -, f 5;
#X floatatom 444 329 5 0 0 0 - - -, f 5;
#X obj 507 243 min~;
#X obj 527 207 sig~ 1;
#X text 478 314 crop pour faire des rectangles;
#X msg 304 347 4.2;
#X obj 840 281 osc~;
#X floatatom 839 230 5 0 0 0 - - -, f 5;
#X obj 787 350 *~, f 6;
#X obj 789 281 osc~;
#X obj 789 323 *~;
#X obj 734 254 / 1000;
#X floatatom 789 232 5 0 0 0 - - -, f 5;
#X obj 897 297 line~;
#X obj 897 254 dbtorms;
#X msg 897 276 \$1 10;
#X obj 900 235 hsl 128 15 0 100 0 0 empty empty empty -2 -8 0 10 -262144
-1 -1 11890 1;
#X text 782 218 freq;
#X text 808 186 oscillation verticale lente;
#X text 899 220 amplitude;
#X floatatom 953 283 5 0 0 0 - - -, f 5;
#X obj 487 520 loadbang;
#X obj 652 597 / 10000;
#X obj 756 129 loadbang;
#X msg 745 188 67;
#X msg 879 154 70;
#X obj 826 487 / 1000;
#X obj 837 253 / 1000;
#X msg 652 536 1222;
#X msg 489 547 -26;
#X connect 0 0 51 0;
#X connect 1 0 37 0;
#X connect 5 0 19 1;
#X connect 6 0 71 0;
#X connect 7 0 9 0;
#X connect 8 0 7 1;
#X connect 9 0 19 0;
#X connect 10 0 9 1;
#X connect 11 0 10 0;
#X connect 12 0 16 1;
#X connect 13 0 75 0;
#X connect 14 0 19 0;
#X connect 15 0 16 0;
#X connect 16 0 14 0;
#X connect 17 0 15 0;
#X connect 18 0 17 0;
#X connect 20 0 21 0;
#X connect 21 0 26 0;
#X connect 22 0 21 1;
#X connect 23 0 24 0;
#X connect 24 0 22 0;
#X connect 25 0 23 0;
#X connect 26 0 27 0;
#X connect 27 0 9 0;
#X connect 28 0 26 1;
#X connect 28 0 27 1;
#X connect 30 0 29 1;
#X connect 32 0 31 1;
#X connect 33 0 14 1;
#X connect 34 0 35 0;
#X connect 34 0 47 0;
#X connect 35 0 33 0;
#X connect 36 0 34 0;
#X connect 37 0 29 0;
#X connect 37 0 38 0;
#X connect 38 0 7 0;
#X connect 39 0 5 0;
#X connect 48 0 37 1;
#X connect 49 0 39 1;
#X connect 50 0 38 1;
#X connect 51 0 31 0;
#X connect 51 0 39 0;
#X connect 52 0 51 1;
#X connect 54 0 38 1;
#X connect 55 0 59 1;
#X connect 56 0 76 0;
#X connect 57 0 19 1;
#X connect 58 0 59 0;
#X connect 59 0 57 0;
#X connect 60 0 58 0;
#X connect 61 0 60 0;
#X connect 62 0 57 1;
#X connect 63 0 64 0;
#X connect 63 0 69 0;
#X connect 64 0 62 0;
#X connect 65 0 63 0;
#X connect 70 0 78 0;
#X connect 70 0 77 0;
#X connect 71 0 5 1;
#X connect 72 0 73 0;
#X connect 72 0 74 0;
#X connect 73 0 61 0;
#X connect 74 0 65 0;
#X connect 75 0 12 0;
#X connect 76 0 55 0;
#X connect 77 0 6 0;
#X connect 78 0 11 0;
