#N canvas 595 741 519 300 10;
#X obj 113 195 j.view;
#X obj 113 174 inlet;
#X obj 113 237 outlet;
#X obj 192 100 j.remote gain;
#X floatatom 135 103 5 0 0 0 - - -, f 5;
#X floatatom 135 123 5 0 0 0 - - -, f 5;
#X obj 192 120 j.remote freq;
#X text 106 103 gain;
#X text 107 122 freq;
#X text 167 100 dB;
#X text 167 121 Hz;
#X floatatom 135 143 5 0 0 0 - - -, f 5;
#X obj 192 140 j.remote ratio;
#X text 101 142 ratio;
#X obj 155 237 print view.dumpOut;
#X connect 0 0 2 0;
#X connect 0 1 14 0;
#X connect 1 0 0 0;
#X connect 3 0 4 0;
#X connect 4 0 3 0;
#X connect 5 0 6 0;
#X connect 6 0 5 0;
#X connect 11 0 12 0;
#X connect 12 0 11 0;
#X coords 0 -1 1 1 85 60 2 100 100;
