#N canvas 84 512 643 503 10;
#X floatatom 128 112 5 0 0 0 - - -, f 5;
#X obj 34 156 phasor~;
#X obj 34 254 wrap~;
#X obj 148 156 phasor~;
#X obj 149 254 wrap~;
#X obj 150 304 *~ 511;
#X obj 35 304 *~ 511;
#X obj 148 218 +~ 0.3;
#X floatatom 219 180 5 0 0 0 - - -, f 5;
#X obj 36 399 *~;
#X obj 150 399 *~;
#X obj 266 353 line~;
#X obj 266 310 dbtorms;
#X msg 266 332 \$1 10;
#X obj 269 290 hsl 128 15 0 127 0 0 empty empty empty -2 -8 0 10 -262144
-1 -1 10000 1;
#X obj 128 91 *;
#X floatatom 142 42 5 0 0 0 - - -, f 5;
#X obj 142 61 t b f;
#X obj 266 268 + 100;
#X obj 266 220 j.parameter gain @type decimal @dataspace gain @unit
dB @default 440 @range -144 0 @clipmode both @default -144 @description
"Rosace voice gain";
#X obj 142 8 j.parameter ratio @type decimal @default 1 @range 0 127
@clipmode both @description "Rosace frequency ratio";
#X obj 219 145 j.parameter offset @type decimal @default 0.3 @range
0 3.14159 @clipmode both @description "Rosace X-Y offset";
#X obj 37 425 throw~ rosace-X;
#X obj 149 425 throw~ rosace-Y;
#N canvas 1 144 450 300 make 0;
#X obj 72 82 until;
#X msg 72 32 512;
#X obj 72 123 f;
#X obj 98 124 + 1;
#X obj 72 54 t f f b;
#X msg 124 86 0;
#X obj 128 125 - 1;
#X obj 72 176 /;
#X obj 72 145 t f f;
#X obj 72 11 loadbang;
#X obj 72 199 *;
#X obj 72 221 sin;
#X obj 162 126 expr 2*acos(-1);
#X obj 72 252 tabwrite \$1-sinus;
#X connect 0 0 2 0;
#X connect 1 0 4 0;
#X connect 2 0 3 0;
#X connect 2 0 8 0;
#X connect 3 0 2 1;
#X connect 4 0 0 0;
#X connect 4 1 6 0;
#X connect 4 2 5 0;
#X connect 4 2 12 0;
#X connect 5 0 2 1;
#X connect 6 0 7 1;
#X connect 7 0 10 0;
#X connect 8 0 7 0;
#X connect 8 1 13 1;
#X connect 9 0 1 0;
#X connect 10 0 11 0;
#X connect 11 0 13 0;
#X connect 12 0 10 1;
#X restore 439 416 pd make table;
#X obj 439 396 table \$1-sinus 512;
#X obj 35 332 tabread~ \$1-sinus;
#X obj 150 332 tabread~ \$1-sinus;
#X floatatom 55 46 5 0 0 0 - - -, f 5;
#X obj 55 -40 j.parameter freq @type decimal @dataspace time @unit
Hz @default 80 @range 0 15000 @description "Rosace frequency";
#X connect 0 0 1 0;
#X connect 0 0 3 0;
#X connect 1 0 2 0;
#X connect 2 0 6 0;
#X connect 3 0 7 0;
#X connect 4 0 5 0;
#X connect 5 0 27 0;
#X connect 6 0 26 0;
#X connect 7 0 4 0;
#X connect 8 0 7 1;
#X connect 9 0 22 0;
#X connect 10 0 23 0;
#X connect 11 0 9 1;
#X connect 11 0 10 1;
#X connect 12 0 13 0;
#X connect 13 0 11 0;
#X connect 14 0 12 0;
#X connect 15 0 0 0;
#X connect 16 0 17 0;
#X connect 17 0 15 0;
#X connect 17 1 15 1;
#X connect 18 0 14 0;
#X connect 19 0 18 0;
#X connect 20 0 16 0;
#X connect 21 0 8 0;
#X connect 26 0 9 0;
#X connect 27 0 10 0;
#X connect 29 0 15 0;
#X connect 29 0 28 0;
