#N canvas 806 148 730 736 10;
#X obj 336 439 dac~ 1 2;
#X obj 330 300 osc~ 1;
#X obj 380 300 osc~ 1;
#X obj 314 389 +~;
#X obj 353 364 / 100;
#X floatatom 353 345 5 0 0 0 - - -, f 5;
#X obj 389 391 +~;
#X obj 428 366 / 100;
#X floatatom 428 347 5 0 0 0 - - -, f 5;
#X obj 326 322 *~ 1;
#X obj 388 328 *~ 1;
#X floatatom 430 322 5 0 0 0 - - -, f 5;
#X floatatom 286 321 5 0 0 0 - - -, f 5;
#X floatatom 541 309 5 0 0 0 - - -, f 5;
#X floatatom 340 270 5 0 0 0 - - -, f 5;
#X obj 415 208 loadbang;
#X msg 415 261 0.25;
#X connect 1 0 9 0;
#X connect 2 0 10 0;
#X connect 3 0 0 0;
#X connect 4 0 3 1;
#X connect 5 0 4 0;
#X connect 6 0 0 1;
#X connect 7 0 6 1;
#X connect 8 0 7 0;
#X connect 9 0 3 0;
#X connect 10 0 6 0;
#X connect 11 0 10 1;
#X connect 12 0 9 1;
#X connect 13 0 2 0;
#X connect 14 0 1 0;
#X connect 15 0 16 0;
#X connect 16 0 2 1;
