#N canvas 558 373 450 300 10;
#X obj 235 172 *~;
#X obj 292 71 dbtorms;
#X floatatom 292 51 5 0 0 0 - - -, f 5;
#X obj 292 114 line~;
#X msg 292 93 \$1 10;
#X obj 234 83 sig~ 1;
#X msg 323 223 \; pd dsp 1;
#X floatatom 78 24 5 -1 1 0 - - -, f 5;
#X obj 78 87 line~;
#X msg 78 66 \$1 10;
#X floatatom 138 24 5 0 0 0 - - -, f 5;
#X obj 138 87 line~;
#X msg 138 66 \$1 10;
#X obj 169 209 dac~ 1 2 3;
#X connect 0 0 13 2;
#X connect 1 0 4 0;
#X connect 2 0 1 0;
#X connect 3 0 0 1;
#X connect 4 0 3 0;
#X connect 5 0 0 0;
#X connect 7 0 9 0;
#X connect 8 0 13 0;
#X connect 9 0 8 0;
#X connect 10 0 12 0;
#X connect 11 0 13 1;
#X connect 12 0 11 0;
