#N canvas 658 300 897 707 10;
#X text 392 95 audiosettings - query and manipulate audio-settings
;
#X msg 180 163 listdevices;
#X text 261 162 get available devices for current driver;
#X obj 273 297 route device;
#X obj 273 319 route out;
#X obj 273 341 route devices;
#X obj 452 364 unpack f s;
#X obj 452 515 spigot;
#X obj 509 392 symbol2list;
#X obj 509 412 list2symbol _;
#X msg 509 474 1;
#X msg 549 484 0;
#X obj 549 464 t b;
#X msg 416 606 driver ALSA \, params @output \$1 6;
#X obj 416 559 f;
#X obj 180 184 t b a b;
#X msg 412 262 -1;
#X obj 416 581 change -1;
#X obj 301 100 tgl 15 0 empty empty empty 17 7 0 10 -262144 -1 -1 0
1;
#X msg 301 46 1;
#X obj 180 252 mediasettings/audiosettings;
#X obj 301 120 metro 10000;
#X msg 64 117 \; pd dsp 1;
#X obj 148 67 t b b;
#X obj 148 24 loadbang;
#X obj 148 46 del 10000;
#X obj 509 432 sel GIGAPort_HD+_(hardware);
#X obj 416 638 print mediasettings;
#X connect 1 0 15 0;
#X connect 3 0 4 0;
#X connect 4 0 5 0;
#X connect 5 1 6 0;
#X connect 6 0 7 0;
#X connect 6 1 8 0;
#X connect 7 0 14 0;
#X connect 8 0 9 0;
#X connect 9 0 26 0;
#X connect 10 0 7 1;
#X connect 11 0 7 1;
#X connect 12 0 11 0;
#X connect 13 0 20 0;
#X connect 13 0 27 0;
#X connect 14 0 17 0;
#X connect 15 0 14 0;
#X connect 15 1 20 0;
#X connect 15 2 16 0;
#X connect 16 0 14 1;
#X connect 17 0 13 0;
#X connect 18 0 21 0;
#X connect 19 0 18 0;
#X connect 20 0 3 0;
#X connect 21 0 1 0;
#X connect 23 0 22 0;
#X connect 23 1 1 0;
#X connect 24 0 25 0;
#X connect 25 0 23 0;
#X connect 26 0 10 0;
#X connect 26 1 12 0;
