#N canvas 446 601 1198 848 10;
#X declare -lib Jamoma;
#X declare -lib zexy;
#X declare -path abs/;
#X declare -path ilda;
#N canvas 0 535 1375 459 Minuit 1;
#X obj 219 74 loadbang;
#X obj 219 124 t b b b;
#X obj 238 100 bng 15 250 50 0 empty empty empty 17 7 0 10 -262144
-1 -1;
#X obj 219 235 j.modular master Minuit;
#X msg 265 165 protocol/setup port 13579;
#X obj 541 -1 inlet;
#X msg 541 181 namespace/build;
#X obj 223 288 j.receive /:activity/in;
#X obj 223 310 print activity/in;
#X obj 393 287 j.receive /:activity/out;
#X obj 393 309 print activity/out;
#X msg 129 184 activity \$1;
#X obj 129 163 tgl 15 0 empty empty empty 17 7 0 10 -262144 -1 -1 0
1;
#X msg 242 145 protocol/setup ip Mac-Pro-de-10-52.local;
#X msg 305 117 protocol/setup ip Mac-mini-de-Miguel.local;
#X obj 219 255 print master;
#X msg 285 96 protocol/setup ip 192.168.0.4;
#X obj 1008 165 print localAppName;
#X obj 799 84 list fromsymbol;
#X obj 799 106 list split 8;
#X obj 839 127 list tosymbol;
#N canvas 382 110 317 75 remoteApp 0;
#X obj 10 10 connectRemoteApp gorgone-1;
#X obj 10 10 connectRemoteApp gorgone-1;
#X restore 1089 45 pd remoteApp;
#X floatatom 760 141 5 0 0 0 - - -, f 5;
#X obj 541 237 s remoteApp;
#N canvas 391 257 317 75 localApp 0;
#X obj 10 10 connectLocalApp laser-1;
#X obj 10 10 connectLocalApp laser-1;
#X restore 1089 65 pd localApp;
#X msg 751 164 gorgone-\$1;
#X obj 751 189 print remoteAppName;
#X msg 938 163 laser-\$1;
#X obj 938 193 symbol;
#X obj 721 228 symbol;
#X obj 1099 347 s pd-localApp;
#X msg 1099 309 clear;
#X obj 1099 279 loadbang;
#X obj 980 347 s pd-remoteApp;
#X obj 553 212 s localApp;
#X msg 938 216 obj 10 10 connectLocalApp \$1 \, loadbang;
#X msg 721 248 obj 10 10 connectRemoteApp \$1 \, loadbang;
#X obj 774 312 s remoteAppName;
#X obj 799 41 ggee/shell;
#X msg 799 18 hostname;
#X obj 799 63 symbol;
#X obj 541 21 t b b;
#X obj 541 43 del 2000;
#X obj 533 427 textfile;
#X msg 533 407 read /home/pi/pd.log;
#X obj 533 373 loadbang;
#X obj 638 334 t b a;
#X obj 638 282 list prepend add;
#X obj 638 304 list trim;
#X msg 638 368 write /home/pi/pd.log;
#X obj 877 41 r hostname;
#X obj 966 83 list prepend set;
#X msg 966 127 gorgone-1;
#X obj 966 105 list trim;
#X connect 0 0 1 0;
#X connect 1 1 13 0;
#X connect 1 2 4 0;
#X connect 2 0 1 0;
#X connect 3 0 15 0;
#X connect 4 0 3 0;
#X connect 5 0 41 0;
#X connect 6 0 3 0;
#X connect 6 0 23 0;
#X connect 6 0 34 0;
#X connect 7 0 8 0;
#X connect 9 0 10 0;
#X connect 12 0 11 0;
#X connect 13 0 3 0;
#X connect 14 0 3 0;
#X connect 16 0 3 0;
#X connect 18 0 19 0;
#X connect 19 1 20 0;
#X connect 20 0 27 0;
#X connect 20 0 25 0;
#X connect 22 0 25 0;
#X connect 25 0 26 0;
#X connect 25 0 29 0;
#X connect 27 0 17 0;
#X connect 27 0 28 0;
#X connect 28 0 35 0;
#X connect 29 0 36 0;
#X connect 29 0 37 0;
#X connect 31 0 30 0;
#X connect 31 0 33 0;
#X connect 32 0 31 0;
#X connect 35 0 30 0;
#X connect 36 0 33 0;
#X connect 38 0 40 0;
#X connect 38 0 47 0;
#X connect 39 0 38 0;
#X connect 40 0 18 0;
#X connect 40 0 51 0;
#X connect 41 0 42 0;
#X connect 41 1 39 0;
#X connect 42 0 6 0;
#X connect 44 0 43 0;
#X connect 45 0 44 0;
#X connect 46 0 49 0;
#X connect 46 1 43 0;
#X connect 47 0 48 0;
#X connect 48 0 46 0;
#X connect 49 0 43 0;
#X connect 50 0 40 0;
#X connect 51 0 53 0;
#X connect 53 0 52 0;
#X restore 55 122 pd Minuit;
#X obj 44 531 *~;
#X obj 44 633 +~;
#X obj 330 857 dac~ 1 2;
#X obj 602 531 *~;
#X obj 602 633 +~;
#X obj 412 292 phasor~ 100;
#X msg 210 478 \$1 10;
#X obj 210 500 line~;
#X msg 776 463 \$1 10;
#X obj 776 485 line~;
#X msg 160 578 \$1 10;
#X obj 160 600 line~;
#X msg 776 566 \$1 10;
#X obj 776 589 line~;
#X obj 143 205 j.receive gorgone-1:/drawing/shape/x;
#X obj 55 100 bng 15 250 50 0 empty empty empty 17 7 0 10 -262144 -1
-1;
#X floatatom 167 450 5 0 0 0 - - -, f 5;
#X floatatom 115 546 5 0 0 0 - - -, f 5;
#X floatatom 726 536 5 0 0 0 - - -, f 5;
#X floatatom 725 432 5 0 0 0 - - -, f 5;
#X obj 161 536 j.parameter offset/x @type decimal @description "X-axis
offset";
#X obj 776 525 j.parameter offset/y @type decimal @description "Y-axis
offset";
#X obj 692 204 j.receive gorgone-1:/drawing/shape/y;
#X obj 454 266 j.parameter frequency @type decimal;
#X floatatom 412 268 5 0 0 0 - - -, f 5;
#X obj 143 350 array set tabX;
#X obj 692 375 array set tabY;
#X obj 669 181 bng 15 250 50 0 empty empty empty 17 7 0 10 -262144
-1 -1;
#X obj 248 20 loadbang;
#X obj 271 160 ildafile;
#X obj 175 253 list length;
#X obj 143 231 t a a;
#X msg 320 127 autoresize 1;
#X obj 248 48 t b b b;
#X msg 303 99 settab x tabX y tabY r dummy g dummy b dummy;
#X floatatom 386 374 5 0 0 0 - - -, f 5;
#X obj 143 186 bng 15 250 50 0 empty empty empty 17 7 0 10 -262144
-1 -1;
#X obj 413 328 *~ 38;
#X obj 330 19 bng 15 250 50 0 empty empty empty 17 7 0 10 -262144 -1
-1;
#X obj 44 435 tabread2~ tabX;
#X floatatom 315 291 5 0 0 0 - - -, f 5;
#X obj 210 444 j.parameter scale/x @type decimal @description "X-axis
scale" @default 1 @range -1 1;
#X obj 776 421 j.parameter scale/y @type decimal @description "Y-axis
scale" @default 1 @range -1 1;
#X obj 680 824 dac~ 3;
#X msg 680 760 \$1 10;
#X obj 680 787 line~;
#X floatatom 629 684 5 0 0 0 - - -, f 5;
#X obj 337 820 dac~ 5 6;
#X obj 115 241 bng 15 250 50 0 empty empty empty 17 7 0 10 -262144
-1 -1;
#X obj 741 27 array define tabX 1000;
#X obj 741 47 array define tabY 1000;
#X obj 741 67 array define dummy 1000;
#X obj 55 -2 loadbang;
#X obj 55 20 del 5000;
#N canvas 0 108 450 300 init 0;
#X obj 87 79 declare -lib Jamoma;
#X obj 87 99 declare -lib zexy;
#X obj 87 119 declare -path abs/;
#X obj 87 139 declare -path ilda;
#X restore 55 142 pd init;
#X msg 271 73 read ilda/ildatest.ild \, 0;
#X obj 602 436 tabread2~ tabY;
#X obj 809 744 spigot 1;
#X obj 809 764 t b b;
#X msg 841 784 0;
#X obj 55 42 t b b;
#X obj 55 63 del 500;
#X obj 603 481 *~ -1;
#X obj 44 479 *~ -1;
#X obj 777 352 tgl 15 0 empty empty empty 17 7 0 10 -262144 -1 -1 0
1;
#X obj 799 352 j.receive gorgone-1:/tracking/enable;
#X obj 680 738 dbtorms;
#X obj 680 673 j.parameter brightness @type decimal @description "laser
beam dimmer" @range 0 80;
#X obj 55 162 audiosettings/GIGAPortHD+;
#X obj 711 148 r remoteAppName;
#X msg 711 170 address \$1:/drawing/shape/y;
#X obj 354 153 r remoteAppName;
#X msg 354 175 address \$1:/drawing/shape/x;
#X obj 800 307 r remoteAppName;
#X msg 800 329 address \$1:/tracking/enable;
#X obj 305 782 *~ 1;
#X obj 426 784 *~ 1;
#X connect 1 0 2 0;
#X connect 2 0 76 0;
#X connect 4 0 5 0;
#X connect 5 0 77 0;
#X connect 6 0 38 0;
#X connect 7 0 8 0;
#X connect 8 0 1 1;
#X connect 9 0 10 0;
#X connect 10 0 4 1;
#X connect 11 0 12 0;
#X connect 12 0 2 1;
#X connect 13 0 14 0;
#X connect 14 0 5 1;
#X connect 15 0 49 0;
#X connect 15 0 32 0;
#X connect 16 0 0 0;
#X connect 17 0 42 0;
#X connect 18 0 21 0;
#X connect 19 0 22 0;
#X connect 20 0 43 0;
#X connect 21 0 11 0;
#X connect 21 0 18 0;
#X connect 22 0 13 0;
#X connect 22 0 19 0;
#X connect 23 0 27 0;
#X connect 24 0 25 0;
#X connect 25 0 6 0;
#X connect 25 0 24 0;
#X connect 28 0 23 0;
#X connect 29 0 34 0;
#X connect 31 0 41 0;
#X connect 32 0 26 0;
#X connect 32 1 31 0;
#X connect 33 0 30 0;
#X connect 34 1 56 0;
#X connect 34 2 35 0;
#X connect 34 2 33 0;
#X connect 35 0 30 0;
#X connect 36 0 17 0;
#X connect 36 0 20 0;
#X connect 37 0 15 0;
#X connect 38 0 40 0;
#X connect 38 0 57 0;
#X connect 39 0 34 0;
#X connect 40 0 64 0;
#X connect 41 0 40 1;
#X connect 41 0 38 1;
#X connect 41 0 57 1;
#X connect 42 0 7 0;
#X connect 42 0 17 0;
#X connect 43 0 9 0;
#X connect 43 0 20 0;
#X connect 45 0 46 0;
#X connect 46 0 44 0;
#X connect 47 0 68 0;
#X connect 53 0 54 0;
#X connect 54 0 61 0;
#X connect 56 0 30 0;
#X connect 57 0 63 0;
#X connect 58 0 59 0;
#X connect 59 0 61 0;
#X connect 59 1 60 0;
#X connect 60 0 58 1;
#X connect 61 0 62 0;
#X connect 61 1 16 0;
#X connect 62 0 16 0;
#X connect 63 0 4 0;
#X connect 64 0 1 0;
#X connect 65 0 66 0;
#X connect 66 0 65 0;
#X connect 67 0 45 0;
#X connect 68 0 47 0;
#X connect 68 0 67 0;
#X connect 70 0 71 0;
#X connect 71 0 23 0;
#X connect 72 0 73 0;
#X connect 73 0 15 0;
#X connect 74 0 75 0;
#X connect 75 0 66 0;
#X connect 76 0 3 0;
#X connect 76 0 48 0;
#X connect 77 0 3 1;
#X connect 77 0 48 1;
