#N canvas 313 168 1198 757 10;
#X obj 754 55 j.parameter test @type decimal;
#X floatatom 707 57 5 0 0 0 - - -, f 5;
#X obj 44 337 tabread~ tabX;
#X obj 602 337 tabread~ tabY;
#N canvas 36 602 1068 367 Minuit 1;
#X obj 60 206 j.modular Minuit @name laser-1;
#X obj 74 45 loadbang;
#X obj 74 88 t b b b;
#X msg 97 109 protocol/setup ip localhost;
#X msg 120 129 protocol/setup port 9999;
#X obj 93 61 bng 15 250 50 0 empty empty empty 17 7 0 10 -262144 -1
-1;
#X obj 395 45 loadbang;
#X obj 395 95 t b b b;
#X obj 414 71 bng 15 250 50 0 empty empty empty 17 7 0 10 -262144 -1
-1;
#X obj 395 206 j.modular master Minuit;
#X msg 441 136 protocol/setup port 13579;
#X msg 395 180 name master;
#X obj 795 45 loadbang;
#X obj 795 95 t b b b;
#X obj 814 71 bng 15 250 50 0 empty empty empty 17 7 0 10 -262144 -1
-1;
#X msg 841 136 protocol/setup port 9998;
#X obj 795 206 j.modular gorgone-1 Minuit;
#X obj 60 158 r localAppName;
#X msg 60 180 name \$1;
#X msg 795 180 name \$1;
#X obj 795 158 r remoteAppName;
#X obj 627 31 inlet;
#X msg 627 53 namespace/build;
#X obj 130 278 j.receive /:activity/in;
#X obj 130 300 print activity/in;
#X obj 320 278 j.receive /:activity/out;
#X obj 320 300 print activity/out;
#X msg 305 155 activity \$1;
#X obj 305 134 tgl 15 0 empty empty empty 17 7 0 10 -262144 -1 -1 1
1;
#X msg 21 132 name laser-1;
#X msg 818 116 protocol/setup ip localhost;
#X msg 418 116 protocol/setup ip Mac-Pro-de-10-52.local;
#X connect 1 0 2 0;
#X connect 2 0 29 0;
#X connect 2 1 3 0;
#X connect 2 2 4 0;
#X connect 3 0 0 0;
#X connect 4 0 0 0;
#X connect 5 0 2 0;
#X connect 6 0 7 0;
#X connect 7 0 11 0;
#X connect 7 1 31 0;
#X connect 7 2 10 0;
#X connect 8 0 7 0;
#X connect 10 0 9 0;
#X connect 11 0 9 0;
#X connect 12 0 13 0;
#X connect 13 1 30 0;
#X connect 13 2 15 0;
#X connect 14 0 13 0;
#X connect 15 0 16 0;
#X connect 17 0 18 0;
#X connect 18 0 0 0;
#X connect 19 0 16 0;
#X connect 20 0 19 0;
#X connect 21 0 22 0;
#X connect 22 0 16 0;
#X connect 22 0 9 0;
#X connect 22 0 0 0;
#X connect 23 0 24 0;
#X connect 25 0 26 0;
#X connect 27 0 0 0;
#X connect 28 0 27 0;
#X connect 29 0 0 0;
#X connect 30 0 16 0;
#X connect 31 0 9 0;
#X restore 55 43 pd Minuit;
#X obj 44 431 *~;
#X obj 44 533 +~;
#X obj 175 657 dac~ 1 2;
#X obj 602 431 *~;
#X obj 602 533 +~;
#X obj 413 228 *~ 1;
#X obj 413 196 phasor~ 100;
#X msg 160 378 \$1 10;
#X obj 160 400 line~;
#X msg 756 375 \$1 10;
#X obj 756 397 line~;
#X msg 160 478 \$1 10;
#X obj 160 500 line~;
#X msg 756 478 \$1 10;
#X obj 756 501 line~;
#X obj 144 105 j.receive gorgone-1:/drawing/shape/x;
#X obj 55 21 bng 15 250 50 0 empty empty empty 17 7 0 10 -262144 -1
-1;
#X floatatom 229 382 5 0 0 0 - - -, f 5;
#X floatatom 121 479 5 0 0 0 - - -, f 5;
#X floatatom 715 479 5 0 0 0 - - -, f 5;
#X floatatom 717 375 5 0 0 0 - - -, f 5;
#X floatatom 246 489 5 0 0 0 - - -, f 5;
#X obj 161 436 j.parameter offset/x @type decimal @description "X-axis
offset";
#X obj 756 437 j.parameter offset/y @type decimal @description "Y-axis
offset";
#X obj 158 335 j.parameter scale/x @type decimal @description "X-axis
scale" @default 1;
#X obj 756 333 j.parameter scale/y @type decimal @description "Y-axis
scale" @default 1;
#X obj 692 104 j.receive gorgone-1:/drawing/shape/y;
#X obj 413 150 j.parameter frequency @type decimal;
#X floatatom 413 172 5 0 0 0 - - -, f 5;
#X obj 486 26 array define tabX;
#X obj 486 46 array define tabY;
#X obj 144 126 array set tabX;
#X obj 692 125 array set tabY;
#X obj 669 81 bng 15 250 50 0 empty empty empty 17 7 0 10 -262144 -1
-1;
#X connect 0 0 1 0;
#X connect 1 0 0 0;
#X connect 2 0 5 0;
#X connect 3 0 8 0;
#X connect 5 0 6 0;
#X connect 6 0 7 0;
#X connect 8 0 9 0;
#X connect 9 0 7 1;
#X connect 10 0 2 0;
#X connect 10 0 3 0;
#X connect 11 0 10 0;
#X connect 12 0 13 0;
#X connect 13 0 5 1;
#X connect 14 0 15 0;
#X connect 15 0 8 1;
#X connect 16 0 17 0;
#X connect 17 0 6 1;
#X connect 18 0 19 0;
#X connect 19 0 9 1;
#X connect 20 0 36 0;
#X connect 21 0 4 0;
#X connect 26 0 27 0;
#X connect 27 0 16 0;
#X connect 27 0 23 0;
#X connect 28 0 18 0;
#X connect 28 0 24 0;
#X connect 29 0 12 0;
#X connect 29 0 22 0;
#X connect 30 0 14 0;
#X connect 30 0 25 0;
#X connect 31 0 37 0;
#X connect 32 0 33 0;
#X connect 33 0 11 0;
#X connect 38 0 31 0;
