#N canvas 393 110 1198 848 10;
#X declare -lib Jamoma;
#N canvas 45 707 1068 367 Minuit 0;
#X obj 60 206 j.modular Minuit @name laser-1;
#X obj 74 45 loadbang;
#X obj 74 88 t b b b;
#X msg 97 109 protocol/setup ip localhost;
#X msg 120 129 protocol/setup port 9999;
#X obj 93 61 bng 15 250 50 0 empty empty empty 17 7 0 10 -262144 -1
-1;
#X obj 395 45 loadbang;
#X obj 395 95 t b b b;
#X obj 414 71 bng 15 250 50 0 empty empty empty 17 7 0 10 -262144 -1
-1;
#X obj 395 206 j.modular master Minuit;
#X msg 441 136 protocol/setup port 13579;
#X msg 395 180 name master;
#X obj 795 45 loadbang;
#X obj 795 95 t b b b;
#X obj 814 71 bng 15 250 50 0 empty empty empty 17 7 0 10 -262144 -1
-1;
#X msg 841 136 protocol/setup port 9998;
#X obj 795 206 j.modular gorgone-1 Minuit;
#X obj 60 158 r localAppName;
#X msg 60 180 name \$1;
#X msg 795 180 name \$1;
#X obj 795 158 r remoteAppName;
#X obj 627 31 inlet;
#X msg 627 53 namespace/build;
#X obj 130 278 j.receive /:activity/in;
#X obj 130 300 print activity/in;
#X obj 320 278 j.receive /:activity/out;
#X obj 320 300 print activity/out;
#X msg 305 155 activity \$1;
#X obj 305 134 tgl 15 0 empty empty empty 17 7 0 10 -262144 -1 -1 0
1;
#X msg 21 132 name laser-1;
#X msg 818 116 protocol/setup ip localhost;
#X msg 418 116 protocol/setup ip Mac-Pro-de-10-52.local;
#X connect 1 0 2 0;
#X connect 2 0 29 0;
#X connect 2 1 3 0;
#X connect 2 2 4 0;
#X connect 3 0 0 0;
#X connect 4 0 0 0;
#X connect 5 0 2 0;
#X connect 6 0 7 0;
#X connect 7 0 11 0;
#X connect 7 1 31 0;
#X connect 7 2 10 0;
#X connect 8 0 7 0;
#X connect 10 0 9 0;
#X connect 11 0 9 0;
#X connect 12 0 13 0;
#X connect 13 1 30 0;
#X connect 13 2 15 0;
#X connect 14 0 13 0;
#X connect 15 0 16 0;
#X connect 17 0 18 0;
#X connect 18 0 0 0;
#X connect 19 0 16 0;
#X connect 20 0 19 0;
#X connect 21 0 22 0;
#X connect 22 0 16 0;
#X connect 22 0 9 0;
#X connect 22 0 0 0;
#X connect 23 0 24 0;
#X connect 25 0 26 0;
#X connect 27 0 0 0;
#X connect 28 0 27 0;
#X connect 29 0 0 0;
#X connect 30 0 16 0;
#X connect 31 0 9 0;
#X restore 55 143 pd Minuit;
#X obj 44 531 *~;
#X obj 44 633 +~;
#X obj 365 735 dac~ 1 2;
#X obj 602 531 *~;
#X obj 602 633 +~;
#X obj 413 296 phasor~ 100;
#X msg 210 478 \$1 10;
#X obj 210 500 line~;
#X msg 776 463 \$1 10;
#X obj 776 485 line~;
#X msg 160 578 \$1 10;
#X obj 160 600 line~;
#X msg 776 566 \$1 10;
#X obj 776 589 line~;
#X obj 144 205 j.receive gorgone-1:/drawing/shape/x;
#X obj 55 121 bng 15 250 50 0 empty empty empty 17 7 0 10 -262144 -1
-1;
#X floatatom 167 450 5 0 0 0 - - -, f 5;
#X floatatom 115 546 5 0 0 0 - - -, f 5;
#X floatatom 726 536 5 0 0 0 - - -, f 5;
#X floatatom 725 432 5 0 0 0 - - -, f 5;
#X obj 161 536 j.parameter offset/x @type decimal @description "X-axis
offset";
#X obj 776 525 j.parameter offset/y @type decimal @description "Y-axis
offset";
#X obj 210 444 j.parameter scale/x @type decimal @description "X-axis
scale" @default 1;
#X obj 776 421 j.parameter scale/y @type decimal @description "Y-axis
scale" @default 1;
#X obj 692 204 j.receive gorgone-1:/drawing/shape/y;
#X obj 413 250 j.parameter frequency @type decimal;
#X floatatom 413 272 5 0 0 0 - - -, f 5;
#X obj 486 146 array define tabY;
#X obj 143 350 array set tabX;
#X obj 692 375 array set tabY;
#X obj 669 181 bng 15 250 50 0 empty empty empty 17 7 0 10 -262144
-1 -1;
#X obj 248 20 loadbang;
#X obj 271 160 ildafile;
#X obj 486 126 array define tabX;
#X obj 175 313 array size tabX;
#X obj 175 283 list length;
#X obj 143 261 t a a;
#X obj 55 163 declare -lib Jamoma;
#X obj 486 166 array define dummy;
#X msg 320 127 autoresize 1;
#X obj 248 48 t b b b;
#X msg 303 99 settab x tabX y tabY r dummy g dummy b dummy;
#X floatatom 386 374 5 0 0 0 - - -, f 5;
#X obj 724 283 list length;
#X obj 692 261 t a a;
#X obj 724 313 array size tabY;
#X obj 144 186 bng 15 250 50 0 empty empty empty 17 7 0 10 -262144
-1 -1;
#X obj 413 328 *~ 38;
#X obj 330 19 bng 15 250 50 0 empty empty empty 17 7 0 10 -262144 -1
-1;
#X obj 157 313 bng 15 250 50 0 empty empty empty 17 7 0 10 -262144
-1 -1;
#X msg 271 73 read ildatest.ild \, 0;
#X obj 44 435 tabread2~ tabX;
#X obj 602 436 tabread2~ tabY;
#X floatatom 315 291 5 0 0 0 - - -, f 5;
#X connect 1 0 2 0;
#X connect 2 0 3 0;
#X connect 4 0 5 0;
#X connect 5 0 3 1;
#X connect 6 0 48 0;
#X connect 7 0 8 0;
#X connect 8 0 1 1;
#X connect 9 0 10 0;
#X connect 10 0 4 1;
#X connect 11 0 12 0;
#X connect 12 0 2 1;
#X connect 13 0 14 0;
#X connect 14 0 5 1;
#X connect 16 0 0 0;
#X connect 17 0 23 0;
#X connect 18 0 21 0;
#X connect 19 0 22 0;
#X connect 20 0 24 0;
#X connect 21 0 11 0;
#X connect 21 0 18 0;
#X connect 22 0 13 0;
#X connect 22 0 19 0;
#X connect 23 0 7 0;
#X connect 23 0 17 0;
#X connect 24 0 9 0;
#X connect 24 0 20 0;
#X connect 25 0 45 0;
#X connect 26 0 27 0;
#X connect 27 0 6 0;
#X connect 31 0 25 0;
#X connect 32 0 41 0;
#X connect 35 0 54 0;
#X connect 36 0 35 0;
#X connect 36 0 54 0;
#X connect 37 0 29 0;
#X connect 37 1 36 0;
#X connect 40 0 33 0;
#X connect 41 0 35 0;
#X connect 41 1 51 0;
#X connect 41 2 42 0;
#X connect 41 2 40 0;
#X connect 42 0 33 0;
#X connect 43 0 17 0;
#X connect 43 0 20 0;
#X connect 44 0 46 0;
#X connect 45 0 30 0;
#X connect 45 1 44 0;
#X connect 47 0 15 0;
#X connect 48 0 52 0;
#X connect 48 0 53 0;
#X connect 49 0 41 0;
#X connect 50 0 35 0;
#X connect 51 0 33 0;
#X connect 52 0 1 0;
#X connect 53 0 4 0;
#X connect 54 0 52 1;
#X connect 54 0 53 1;
#X connect 54 0 48 1;
