#N canvas 709 206 1211 707 10;
#X declare -lib Jamoma;
#X declare -lib zexy;
#X declare -path abs/;
#X declare -path ilda;
#N canvas 285 310 1265 459 Minuit 0;
#X obj 219 74 loadbang;
#X obj 219 124 t b b b;
#X obj 238 100 bng 15 250 50 0 empty empty empty 17 7 0 10 -262144
-1 -1;
#X obj 219 235 j.modular master Minuit;
#X msg 265 165 protocol/setup port 13579;
#X obj 541 -1 inlet;
#X msg 541 181 namespace/build;
#X obj 223 288 j.receive /:activity/in;
#X obj 223 310 print activity/in;
#X obj 393 287 j.receive /:activity/out;
#X obj 393 309 print activity/out;
#X msg 129 184 activity \$1;
#X obj 129 163 tgl 15 0 empty empty empty 17 7 0 10 -262144 -1 -1 0
1;
#X msg 305 117 protocol/setup ip Mac-mini-de-Miguel.local;
#X obj 219 255 print master;
#X msg 285 96 protocol/setup ip 192.168.0.4;
#X obj 1008 165 print localAppName;
#X obj 799 84 list fromsymbol;
#X obj 799 106 list split 8;
#X obj 839 127 list tosymbol;
#X floatatom 760 141 5 0 0 0 - - -, f 5;
#X obj 541 237 s remoteApp;
#X msg 751 164 gorgone-\$1;
#X obj 751 189 print remoteAppName;
#X msg 938 163 laser-\$1;
#X obj 938 193 symbol;
#X obj 721 228 symbol;
#X msg 1099 309 clear;
#X obj 1099 279 loadbang;
#X obj 980 347 s pd-remoteApp;
#X obj 553 212 s localApp;
#X msg 938 216 obj 10 10 connectLocalApp \$1 \, loadbang;
#X msg 721 248 obj 10 10 connectRemoteApp \$1 \, loadbang;
#X obj 781 291 s remoteAppName;
#X obj 799 41 ggee/shell;
#X msg 799 18 hostname;
#X obj 799 63 symbol;
#X obj 541 21 t b b;
#X obj 541 43 del 2000;
#X obj 533 427 textfile;
#X msg 533 407 read /home/pi/pd.log;
#X obj 533 373 loadbang;
#X obj 638 334 t b a;
#X obj 638 282 list prepend add;
#X obj 638 304 list trim;
#X msg 638 368 write /home/pi/pd.log;
#X obj 966 83 list prepend set;
#X msg 966 127 gorgone-3;
#X obj 966 105 list trim;
#X obj 839 170 s deviceID;
#X obj 839 149 atoi;
#X msg 242 145 protocol/setup ip gorgone-master.local;
#X obj 1089 44 app;
#X obj 1099 347 s pd-localApp;
#X obj 627 27 spigot 1;
#X obj 627 49 t b b;
#X msg 659 80 0;
#X connect 0 0 1 0;
#X connect 1 1 51 0;
#X connect 1 2 4 0;
#X connect 2 0 1 0;
#X connect 3 0 14 0;
#X connect 4 0 3 0;
#X connect 5 0 37 0;
#X connect 6 0 3 0;
#X connect 6 0 21 0;
#X connect 6 0 30 0;
#X connect 7 0 8 0;
#X connect 9 0 10 0;
#X connect 12 0 11 0;
#X connect 13 0 3 0;
#X connect 15 0 3 0;
#X connect 17 0 18 0;
#X connect 18 1 19 0;
#X connect 19 0 24 0;
#X connect 19 0 22 0;
#X connect 19 0 50 0;
#X connect 20 0 22 0;
#X connect 22 0 23 0;
#X connect 22 0 26 0;
#X connect 24 0 16 0;
#X connect 24 0 25 0;
#X connect 25 0 31 0;
#X connect 26 0 32 0;
#X connect 26 0 33 0;
#X connect 27 0 29 0;
#X connect 27 0 53 0;
#X connect 28 0 27 0;
#X connect 31 0 53 0;
#X connect 32 0 29 0;
#X connect 34 0 36 0;
#X connect 34 0 43 0;
#X connect 35 0 34 0;
#X connect 36 0 17 0;
#X connect 36 0 46 0;
#X connect 37 0 38 0;
#X connect 37 1 54 0;
#X connect 38 0 6 0;
#X connect 40 0 39 0;
#X connect 41 0 40 0;
#X connect 42 0 45 0;
#X connect 42 1 39 0;
#X connect 43 0 44 0;
#X connect 44 0 42 0;
#X connect 45 0 39 0;
#X connect 46 0 48 0;
#X connect 48 0 47 0;
#X connect 50 0 49 0;
#X connect 51 0 3 0;
#X connect 54 0 55 0;
#X connect 55 0 35 0;
#X connect 55 1 56 0;
#X connect 56 0 54 1;
#X restore 55 122 pd Minuit;
#X obj 410 733 dac~ 1 2;
#X obj 143 205 j.receive gorgone-1:/drawing/shape/x;
#X obj 55 100 bng 15 250 50 0 empty empty empty 17 7 0 10 -262144 -1
-1;
#X obj 692 204 j.receive gorgone-1:/drawing/shape/y;
#X obj 490 290 j.parameter frequency @type decimal;
#X floatatom 448 292 5 0 0 0 - - -, f 5;
#X obj 143 280 array set tabX;
#X obj 692 225 array set tabY;
#X obj 669 181 bng 15 250 50 0 empty empty empty 17 7 0 10 -262144
-1 -1;
#X obj 248 20 loadbang;
#X obj 271 160 ildafile;
#X obj 175 253 list length;
#X obj 143 231 t a a;
#X msg 320 127 autoresize 1;
#X obj 248 48 t b b b;
#X msg 303 99 settab x tabX y tabY r dummy g dummy b dummy;
#X obj 143 186 bng 15 250 50 0 empty empty empty 17 7 0 10 -262144
-1 -1;
#X obj 449 352 *~ 38;
#X obj 330 19 bng 15 250 50 0 empty empty empty 17 7 0 10 -262144 -1
-1;
#X obj 395 434 tabread2~ tabX;
#X floatatom 319 305 5 0 0 0 - - -, f 5;
#X obj 754 823 dac~ 3;
#X msg 754 769 \$1 10;
#X obj 754 796 line~;
#X floatatom 703 673 5 0 0 0 - - -, f 5;
#X obj 115 241 bng 15 250 50 0 empty empty empty 17 7 0 10 -262144
-1 -1;
#X obj 741 27 array define tabX 1000;
#X obj 741 47 array define tabY 1000;
#X obj 741 67 array define dummy 1000;
#X obj 55 -2 loadbang;
#X obj 55 20 del 5000;
#N canvas 0 108 450 300 init 0;
#X obj 87 79 declare -lib Jamoma;
#X obj 87 99 declare -lib zexy;
#X obj 87 119 declare -path abs/;
#X obj 87 139 declare -path ilda;
#X restore 55 142 pd init;
#X msg 271 73 read ilda/ildatest.ild \, 0;
#X obj 503 434 tabread2~ tabY;
#X obj 55 42 t b b;
#X obj 504 469 *~ -1;
#X obj 395 478 *~ -1;
#X obj 774 414 tgl 15 0 empty empty empty 17 7 0 10 -262144 -1 -1 0
1;
#X obj 795 412 j.receive gorgone-1:/tracking/enable;
#X obj 55 162 audiosettings/GIGAPortHD+;
#X obj 711 148 r remoteAppName;
#X msg 711 170 address \$1:/drawing/shape/y;
#X obj 354 153 r remoteAppName;
#X msg 354 175 address \$1:/drawing/shape/x;
#X obj 796 367 r remoteAppName;
#X msg 796 389 address \$1:/tracking/enable;
#X obj 319 280 max 30;
#X obj 957 98 array size tabX;
#X obj 959 76 bng 15 250 50 0 empty empty empty 17 7 0 10 -262144 -1
-1;
#X floatatom 957 120 5 0 0 0 - - -, f 5;
#X obj 754 662 j.parameter brightness @type decimal @description "laser
beam dimmer" @range 0 100;
#X floatatom 754 727 5 0 0 0 - - -, f 5;
#N canvas 135 233 865 542 scaling 0;
#X obj 290 241 / 100;
#X obj 290 293 * 30;
#X obj 290 345 + 70;
#X obj 395 245 unpack;
#X obj 290 175 inlet;
#X obj 290 397 outlet;
#X floatatom 307 317 5 0 0 0 - - -, f 5;
#X floatatom 304 266 5 0 0 0 - - -, f 5;
#X obj 290 197 max 0;
#X obj 290 219 min 100;
#X obj 395 147 r deviceID;
#X obj 395 174 route 1 2 3;
#X msg 493 212 100 0;
#X msg 443 212 100 0;
#X msg 395 211 100 0;
#X connect 0 0 1 0;
#X connect 1 0 2 0;
#X connect 2 0 5 0;
#X connect 3 0 1 1;
#X connect 3 1 2 1;
#X connect 4 0 8 0;
#X connect 6 0 2 1;
#X connect 7 0 1 1;
#X connect 8 0 9 0;
#X connect 9 0 0 0;
#X connect 10 0 11 0;
#X connect 11 0 14 0;
#X connect 11 1 13 0;
#X connect 11 2 12 0;
#X connect 12 0 3 0;
#X connect 13 0 3 0;
#X connect 14 0 3 0;
#X restore 754 701 pd scaling;
#X obj 754 746 / 100;
#N canvas 0 133 1452 710 scalebias 0;
#X obj 96 285 *~;
#X obj 96 497 +~;
#X obj 774 255 *~;
#X obj 855 457 +~;
#X msg 113 162 \$1 10;
#X obj 113 184 line~;
#X msg 793 87 \$1 10;
#X obj 793 109 line~;
#X msg 190 376 \$1 10;
#X obj 190 398 line~;
#X msg 928 370 \$1 10;
#X obj 928 393 line~;
#X floatatom 70 134 5 0 0 0 - - -, f 5;
#X floatatom 144 348 5 0 0 0 - - -, f 5;
#X floatatom 878 340 5 0 0 0 - - -, f 5;
#X floatatom 742 56 5 0 0 0 - - -, f 5;
#X obj 190 338 j.parameter offset/x @type decimal @description "X-axis
offset";
#X obj 928 329 j.parameter offset/y @type decimal @description "Y-axis
offset";
#X obj 113 128 j.parameter scale/x @type decimal @description "X-axis
scale" @default 1 @range -1 1;
#X obj 793 45 j.parameter scale/y @type decimal @description "Y-axis
scale" @default 1 @range -1 1;
#X obj 854 305 *~;
#X obj 854 627 +~;
#X msg 873 237 \$1 10;
#X obj 873 259 line~;
#X msg 922 533 \$1 10;
#X obj 922 556 line~;
#X floatatom 872 503 5 0 0 0 - - -, f 5;
#X floatatom 822 206 5 0 0 0 - - -, f 5;
#X obj 853 656 outlet~;
#X obj 744 109 inlet~;
#X obj 97 328 *~;
#X obj 96 616 +~;
#X msg 207 229 \$1 10;
#X obj 207 251 line~;
#X msg 228 510 \$1 10;
#X obj 228 532 line~;
#X floatatom 164 201 5 0 0 0 - - -, f 5;
#X floatatom 182 481 5 0 0 0 - - -, f 5;
#X obj 228 470 j.parameter global/offset/x @type decimal @description
"X-axis offset";
#X obj 207 195 j.parameter global/scale/x @type decimal @description
"X-axis scale" @default 1 @range -1 1;
#X obj 64 184 inlet~;
#X obj 95 661 outlet~;
#X obj 873 195 j.parameter global/scale/y @type decimal @description
"Y-axis scale" @default 1 @range -1 1;
#X obj 922 492 j.parameter global/offset/y @type decimal @description
"Y-axis offset";
#X obj 646 323 dac~ 6;
#X connect 0 0 30 0;
#X connect 0 0 44 0;
#X connect 1 0 31 0;
#X connect 2 0 20 0;
#X connect 2 0 44 0;
#X connect 3 0 21 0;
#X connect 4 0 5 0;
#X connect 5 0 0 1;
#X connect 6 0 7 0;
#X connect 7 0 2 1;
#X connect 8 0 9 0;
#X connect 9 0 1 1;
#X connect 10 0 11 0;
#X connect 11 0 3 1;
#X connect 12 0 18 0;
#X connect 13 0 16 0;
#X connect 14 0 17 0;
#X connect 15 0 19 0;
#X connect 16 0 8 0;
#X connect 16 0 13 0;
#X connect 17 0 10 0;
#X connect 17 0 14 0;
#X connect 18 0 4 0;
#X connect 18 0 12 0;
#X connect 19 0 6 0;
#X connect 19 0 15 0;
#X connect 20 0 3 0;
#X connect 21 0 28 0;
#X connect 22 0 23 0;
#X connect 23 0 20 1;
#X connect 24 0 25 0;
#X connect 25 0 21 1;
#X connect 26 0 43 0;
#X connect 27 0 42 0;
#X connect 29 0 2 0;
#X connect 30 0 1 0;
#X connect 31 0 41 0;
#X connect 32 0 33 0;
#X connect 33 0 30 1;
#X connect 34 0 35 0;
#X connect 35 0 31 1;
#X connect 36 0 39 0;
#X connect 37 0 38 0;
#X connect 38 0 34 0;
#X connect 38 0 37 0;
#X connect 39 0 32 0;
#X connect 39 0 36 0;
#X connect 40 0 0 0;
#X connect 42 0 22 0;
#X connect 42 0 27 0;
#X connect 43 0 24 0;
#X connect 43 0 26 0;
#X restore 390 675 pd scalebias;
#N canvas 0 94 913 529 noise 0;
#X obj 344 187 noise~;
#X msg 409 171 \$1 10;
#X obj 409 194 line~;
#X floatatom 359 127 5 0 0 0 - - -, f 5;
#X obj 284 187 noise~;
#X obj 264 464 +~;
#X obj 325 466 +~;
#X obj 409 150 dbtorms;
#X obj 283 223 *~;
#X obj 343 223 *~;
#X obj 264 425 inlet~;
#X obj 264 486 outlet~;
#X obj 324 425 inlet~;
#X obj 324 486 outlet~;
#X msg 449 276 \$1 10;
#X floatatom 399 232 5 0 0 0 - - -, f 5;
#X obj 449 255 mtof;
#X obj 449 220 j.parameter noise/filter @type decimal @description
"noise filter cut frequency";
#X obj 409 115 j.parameter noise/level @type decimal @description "noise
level in dB";
#X obj 282 366 lop~;
#X obj 282 398 lop~;
#X obj 449 299 line;
#X obj 342 366 lop~;
#X obj 342 398 lop~;
#X connect 0 0 9 0;
#X connect 1 0 2 0;
#X connect 2 0 8 1;
#X connect 2 0 9 1;
#X connect 3 0 18 0;
#X connect 4 0 8 0;
#X connect 5 0 11 0;
#X connect 6 0 13 0;
#X connect 7 0 1 0;
#X connect 8 0 19 0;
#X connect 9 0 22 0;
#X connect 10 0 5 0;
#X connect 12 0 6 0;
#X connect 14 0 21 0;
#X connect 15 0 17 0;
#X connect 16 0 14 0;
#X connect 17 0 15 0;
#X connect 17 0 16 0;
#X connect 18 0 3 0;
#X connect 18 0 7 0;
#X connect 19 0 20 0;
#X connect 20 0 5 1;
#X connect 21 0 19 1;
#X connect 21 0 20 1;
#X connect 21 0 22 1;
#X connect 21 0 23 1;
#X connect 22 0 23 0;
#X connect 23 0 6 1;
#X restore 396 556 pd noise;
#X obj 774 484 tgl 15 0 empty empty empty 17 7 0 10 -262144 -1 -1 0
1;
#X obj 796 437 r remoteAppName;
#X msg 796 459 address \$1:/drawing/enable;
#X obj 795 482 j.receive gorgone-1:/drawing/enable;
#X obj 448 316 phasor~ 40;
#X obj 55 63 del 2000;
#X obj 78 359 r remoteAppName;
#X symbolatom 78 386 10 0 0 0 - - -, f 10;
#X connect 2 0 26 0;
#X connect 2 0 13 0;
#X connect 3 0 0 0;
#X connect 4 0 8 0;
#X connect 5 0 6 0;
#X connect 6 0 5 0;
#X connect 6 0 61 0;
#X connect 9 0 4 0;
#X connect 12 0 47 0;
#X connect 13 0 7 0;
#X connect 13 1 12 0;
#X connect 14 0 11 0;
#X connect 15 1 33 0;
#X connect 15 2 16 0;
#X connect 15 2 14 0;
#X connect 16 0 11 0;
#X connect 17 0 2 0;
#X connect 18 0 20 0;
#X connect 18 0 34 0;
#X connect 19 0 15 0;
#X connect 20 0 37 0;
#X connect 21 0 20 1;
#X connect 21 0 18 1;
#X connect 21 0 34 1;
#X connect 23 0 24 0;
#X connect 24 0 22 0;
#X connect 25 0 51 0;
#X connect 30 0 31 0;
#X connect 31 0 35 0;
#X connect 33 0 11 0;
#X connect 34 0 36 0;
#X connect 35 0 62 0;
#X connect 35 1 3 0;
#X connect 36 0 56 1;
#X connect 37 0 56 0;
#X connect 38 0 39 0;
#X connect 39 0 38 0;
#X connect 41 0 42 0;
#X connect 42 0 4 0;
#X connect 43 0 44 0;
#X connect 44 0 2 0;
#X connect 45 0 46 0;
#X connect 46 0 39 0;
#X connect 47 0 21 0;
#X connect 48 0 50 0;
#X connect 49 0 48 0;
#X connect 51 0 25 0;
#X connect 51 0 53 0;
#X connect 52 0 54 0;
#X connect 53 0 52 0;
#X connect 54 0 23 0;
#X connect 55 0 1 0;
#X connect 55 1 1 1;
#X connect 56 0 55 0;
#X connect 56 1 55 1;
#X connect 57 0 60 0;
#X connect 58 0 59 0;
#X connect 59 0 60 0;
#X connect 60 0 57 0;
#X connect 61 0 18 0;
#X connect 62 0 3 0;
#X connect 63 0 64 0;
