{
	"patcher" : 	{
		"fileversion" : 1,
		"appversion" : 		{
			"major" : 7,
			"minor" : 2,
			"revision" : 3,
			"architecture" : "x86",
			"modernui" : 1
		}
,
		"rect" : [ 234.0, 103.0, 962.0, 1059.0 ],
		"bglocked" : 0,
		"openinpresentation" : 0,
		"default_fontsize" : 12.0,
		"default_fontface" : 0,
		"default_fontname" : "Arial",
		"gridonopen" : 1,
		"gridsize" : [ 15.0, 15.0 ],
		"gridsnaponopen" : 1,
		"objectsnaponopen" : 1,
		"statusbarvisible" : 2,
		"toolbarvisible" : 1,
		"lefttoolbarpinned" : 0,
		"toptoolbarpinned" : 0,
		"righttoolbarpinned" : 0,
		"bottomtoolbarpinned" : 0,
		"toolbars_unpinned_last_save" : 0,
		"tallnewobj" : 0,
		"boxanimatetime" : 200,
		"enablehscroll" : 1,
		"enablevscroll" : 1,
		"devicewidth" : 0.0,
		"description" : "",
		"digest" : "",
		"tags" : "",
		"style" : "",
		"subpatcher_template" : "",
		"boxes" : [ 			{
				"box" : 				{
					"autosave" : 1,
					"bgmode" : 0,
					"border" : 0,
					"clickthrough" : 0,
					"fontname" : "Arial",
					"fontsize" : 13.0,
					"id" : "obj-24",
					"maxclass" : "newobj",
					"numinlets" : 2,
					"numoutlets" : 8,
					"offset" : [ 0.0, 0.0 ],
					"outlettype" : [ "signal", "signal", "", "list", "int", "", "", "" ],
					"patching_rect" : [ 483.5, 691.0, 377.5, 255.0 ],
					"presentation_rect" : [ 481.0, 687.0, 300.0, 100.0 ],
					"save" : [ "#N", "vst~", "loaduniqueid", 0, ";" ],
					"saved_object_attributes" : 					{
						"annotation_name" : "",
						"parameter_enable" : 0
					}
,
					"snapshot" : 					{
						"filetype" : "C74Snapshot",
						"version" : 2,
						"minorversion" : 0,
						"name" : "snapshotlist",
						"origin" : "vst~",
						"type" : "list",
						"subtype" : "Undefined",
						"embed" : 1,
						"snapshot" : 						{
							"pluginname" : "BC Phaser 3 VST(Mono).vst",
							"plugindisplayname" : "BC Phaser 3 VST(Mono)",
							"pluginsavedname" : "BC Phaser 3 VST(Mono)",
							"pluginsaveduniqueid" : 0,
							"version" : 1,
							"isbank" : 0,
							"isbase64" : 1,
							"sliderorder" : [ 0, 1, 2, 3, 4, 5, 6, 7, 8, 9 ],
							"slidervisibility" : [ 1, 1, 1, 1, 1, 1, 1, 1, 1, 1 ],
							"blob" : "826.CMlaKA....fQPMDZ....AfiLxfG...P.....AT0bkIGHPI2amIWXsA.......................Hf+77CdswFH1Ulbyk1at0iHw3BLh.RYtM1ajklam0iHUQkQsfiH+3COPIWYyUFcfXWYxMWZu4VOhPiHf.mbuclSg0VY8HBQkYVX0wFch.RSIQTRI4Fb0QGQkYVX0wFc8HRLh.RSIQTROUGcvUGcDUlYgUGaz0iHwHhO7jlavUGcPElbg01bfL1a04Fc8HRLvHBHvASOhDiHf.WL8HRLw3RLyjiLz.iL1PCN4HSM2fSLxTiHf.mL8HBLh.BbyziH4DiKyTSM2XCM3XSM3bSMxPCMwPSLh.BbzziH1HiKvjSL4LCM1fCL4LCN2HCL2.yLh.Bb0ziHwDiKyPSL2biLvbSNzXyM2byLzLCNh.Bb1ziHwjiK1HCLxTyLwPSM1jCM2LiL1XiMh.Bb2ziHvHBHvgSOh.iHf.WN8HBLh7hO7jlavUGcSQmbo41Yy8hO7jlavUGcCUmb1U1bu3COo4Fb0Q2T0ImYgMVYy8hO7jlavUGcCU2bz8VaPI2avUlbzkVYy8hO7z1ajUFau3COGUURfXWYxMWZu4VOhDiHfT2bkQTYlEVcrQWOhDiHfLFZg41YkQ1To41XkAkbkMWYzwzagQVYj0iHvHhO7L2Zo4FH1Ulbyk1at0iHxHhO7LGcgQWYfXWYxMWZu4VOhPiH9vCbgIWXsMGHvMza04Fc8HhLh3COvACHtEVak0iHzgVYsUlKuAWXikFc4IBH1EFa0UVOhDCLvHxK9vCbw.hag0VY8HBcnUVak4xbn81ceMWYzQWZtc1bh.hcgwVck0iHvHxK9vyKvElbg01b9vyX0ImckMGHiMza04Fc8HBLh7hO7LWcxYVXiU1bfL2PuUmaz0iHvHxK9vybzIWZtc1bfL2PuUmaz0iHvHxK9vyXuwFakMFco8laC8VctQ2bfL1PuUmaz0iHvHxK9vCbx8FbkIGcoU1bf.2PuUmaz0iHvHxK9vyYx8VcvMGHmMza04Fc8HBLh7hO77xbzEFck4COuL2Zo4lO77xQUkjO77BTxU1bkQmO.."
						}
,
						"snapshotlist" : 						{
							"current_snapshot" : 0,
							"entries" : [ 								{
									"filetype" : "C74Snapshot",
									"version" : 2,
									"minorversion" : 0,
									"name" : "BC Phaser 3 VST(Mono)",
									"origin" : "BC Phaser 3 VST(Mono).vst",
									"type" : "VST",
									"subtype" : "MidiEffect",
									"embed" : 1,
									"snapshot" : 									{
										"pluginname" : "BC Phaser 3 VST(Mono).vst",
										"plugindisplayname" : "BC Phaser 3 VST(Mono)",
										"pluginsavedname" : "BC Phaser 3 VST(Mono)",
										"pluginsaveduniqueid" : 0,
										"version" : 1,
										"isbank" : 0,
										"isbase64" : 1,
										"sliderorder" : [ 0, 1, 2, 3, 4, 5, 6, 7, 8, 9 ],
										"slidervisibility" : [ 1, 1, 1, 1, 1, 1, 1, 1, 1, 1 ],
										"blob" : "826.CMlaKA....fQPMDZ....AfiLxfG...P.....AT0bkIGHPI2amIWXsA.......................Hf+77CdswFH1Ulbyk1at0iHw3BLh.RYtM1ajklam0iHUQkQsfiH+3COPIWYyUFcfXWYxMWZu4VOhPiHf.mbuclSg0VY8HBQkYVX0wFch.RSIQTRI4Fb0QGQkYVX0wFc8HRLh.RSIQTROUGcvUGcDUlYgUGaz0iHwHhO7jlavUGcPElbg01bfL1a04Fc8HRLvHBHvASOhDiHf.WL8HRLw3RLyjiLz.iL1PCN4HSM2fSLxTiHf.mL8HBLh.BbyziH4DiKyTSM2XCM3XSM3bSMxPCMwPSLh.BbzziH1HiKvjSL4LCM1fCL4LCN2HCL2.yLh.Bb0ziHwDiKyPSL2biLvbSNzXyM2byLzLCNh.Bb1ziHwjiK1HCLxTyLwPSM1jCM2LiL1XiMh.Bb2ziHvHBHvgSOh.iHf.WN8HBLh7hO7jlavUGcSQmbo41Yy8hO7jlavUGcCUmb1U1bu3COo4Fb0Q2T0ImYgMVYy8hO7jlavUGcCU2bz8VaPI2avUlbzkVYy8hO7z1ajUFau3COGUURfXWYxMWZu4VOhDiHfT2bkQTYlEVcrQWOhDiHfLFZg41YkQ1To41XkAkbkMWYzwzagQVYj0iHvHhO7L2Zo4FH1Ulbyk1at0iHxHhO7LGcgQWYfXWYxMWZu4VOhPiH9vCbgIWXsMGHvMza04Fc8HhLh3COvACHtEVak0iHzgVYsUlKuAWXikFc4IBH1EFa0UVOhDCLvHxK9vCbw.hag0VY8HBcnUVak4xbn81ceMWYzQWZtc1bh.hcgwVck0iHvHxK9vyKvElbg01b9vyX0ImckMGHiMza04Fc8HBLh7hO7LWcxYVXiU1bfL2PuUmaz0iHvHxK9vybzIWZtc1bfL2PuUmaz0iHvHxK9vyXuwFakMFco8laC8VctQ2bfL1PuUmaz0iHvHxK9vCbx8FbkIGcoU1bf.2PuUmaz0iHvHxK9vyYx8VcvMGHmMza04Fc8HBLh7hO77xbzEFck4COuL2Zo4lO77xQUkjO77BTxU1bkQmO.."
									}
,
									"fileref" : 									{
										"name" : "BC Phaser 3 VST(Mono)",
										"filename" : "BC Phaser 3 VST(Mono).maxsnap",
										"filepath" : "~/Documents/Max 7/Snapshots",
										"filepos" : -1,
										"snapshotfileid" : "124a08c8350fb1d85f771185d7258e77"
									}

								}
 ]
						}

					}
,
					"style" : "",
					"text" : "vst~",
					"varname" : "vst~[2]",
					"viewvisibility" : 1
				}

			}
, 			{
				"box" : 				{
					"id" : "obj-23",
					"maxclass" : "message",
					"numinlets" : 2,
					"numoutlets" : 1,
					"outlettype" : [ "" ],
					"patching_rect" : [ 141.5, 97.5, 31.0, 22.0 ],
					"presentation_rect" : [ 141.5, 97.5, 0.0, 0.0 ],
					"style" : "",
					"text" : "127"
				}

			}
, 			{
				"box" : 				{
					"id" : "obj-22",
					"maxclass" : "message",
					"numinlets" : 2,
					"numoutlets" : 1,
					"outlettype" : [ "" ],
					"patching_rect" : [ 264.5, 507.5, 31.0, 22.0 ],
					"style" : "",
					"text" : "105"
				}

			}
, 			{
				"box" : 				{
					"id" : "obj-18",
					"maxclass" : "newobj",
					"numinlets" : 1,
					"numoutlets" : 0,
					"patching_rect" : [ 591.0, 667.0, 34.0, 22.0 ],
					"style" : "",
					"text" : "print"
				}

			}
, 			{
				"box" : 				{
					"autosave" : 1,
					"bgmode" : 0,
					"border" : 0,
					"clickthrough" : 0,
					"fontname" : "Arial",
					"fontsize" : 13.0,
					"id" : "obj-14",
					"maxclass" : "newobj",
					"numinlets" : 2,
					"numoutlets" : 8,
					"offset" : [ 0.0, 0.0 ],
					"outlettype" : [ "signal", "signal", "", "list", "int", "", "", "" ],
					"patching_rect" : [ 480.0, 84.0, 381.0, 452.0 ],
					"presentation_rect" : [ 0.0, 0.0, 300.0, 100.0 ],
					"save" : [ "#N", "vst~", "loaduniqueid", 0, ";" ],
					"saved_object_attributes" : 					{
						"annotation_name" : "",
						"parameter_enable" : 0
					}
,
					"snapshot" : 					{
						"filetype" : "C74Snapshot",
						"version" : 2,
						"minorversion" : 0,
						"name" : "snapshotlist",
						"origin" : "vst~",
						"type" : "list",
						"subtype" : "Undefined",
						"embed" : 1,
						"snapshot" : 						{
							"pluginname" : "FuzzPlus3.vst",
							"plugindisplayname" : "FuzzPlus3",
							"pluginsavedname" : "/Library/Audio/Plug-Ins/VST/Audio Damage/FuzzPlus3.vst",
							"pluginsaveduniqueid" : 0,
							"version" : 1,
							"isbank" : 0,
							"isbase64" : 1,
							"sliderorder" : [ 0, 1, 2, 3, 4 ],
							"slidervisibility" : [ 1, 1, 1, 1, 1 ],
							"blob" : "150.CMlaKA....fQPMDZ....ADDQlMC....Y....A.........................................fVVMjLgDE....OR81az4COv3CLtDiLvHSMyvyKv3COw3CLtXCNwjiMxvyKw3COx3CLtjyL1bCL4vyKx3COy3SL77xL9vCM9.iK2PSNxTSL77BM9vyKR81az4C."
						}
,
						"snapshotlist" : 						{
							"current_snapshot" : 0,
							"entries" : [ 								{
									"filetype" : "C74Snapshot",
									"version" : 2,
									"minorversion" : 0,
									"name" : "FuzzPlus3",
									"origin" : "FuzzPlus3.vst",
									"type" : "VST",
									"subtype" : "AudioEffect",
									"embed" : 1,
									"snapshot" : 									{
										"pluginname" : "FuzzPlus3.vst",
										"plugindisplayname" : "FuzzPlus3",
										"pluginsavedname" : "/Library/Audio/Plug-Ins/VST/Audio Damage/FuzzPlus3.vst",
										"pluginsaveduniqueid" : 0,
										"version" : 1,
										"isbank" : 0,
										"isbase64" : 1,
										"sliderorder" : [ 0, 1, 2, 3, 4 ],
										"slidervisibility" : [ 1, 1, 1, 1, 1 ],
										"blob" : "150.CMlaKA....fQPMDZ....ADDQlMC....Y....A.........................................fVVMjLgDE....OR81az4COv3CLtDiLvHSMyvyKv3COw3CLtXCNwjiMxvyKw3COx3CLtjyL1bCL4vyKx3COy3SL77xL9vCM9.iK2PSNxTSL77BM9vyKR81az4C."
									}
,
									"fileref" : 									{
										"name" : "FuzzPlus3",
										"filename" : "FuzzPlus3.maxsnap",
										"filepath" : "~/Documents/Max 7/Snapshots",
										"filepos" : -1,
										"snapshotfileid" : "eda7a04ddd7a8477f12fead91c38fcf6"
									}

								}
 ]
						}

					}
,
					"style" : "",
					"text" : "vst~",
					"varname" : "vst~[1]",
					"viewvisibility" : 1
				}

			}
, 			{
				"box" : 				{
					"id" : "obj-6",
					"maxclass" : "gain~",
					"numinlets" : 1,
					"numoutlets" : 2,
					"outlettype" : [ "signal", "int" ],
					"parameter_enable" : 0,
					"patching_rect" : [ 376.0, 157.0, 22.0, 140.0 ],
					"presentation_rect" : [ 360.0, 157.0, 0.0, 0.0 ],
					"style" : ""
				}

			}
, 			{
				"box" : 				{
					"id" : "obj-7",
					"maxclass" : "meter~",
					"numinlets" : 1,
					"numoutlets" : 1,
					"outlettype" : [ "float" ],
					"patching_rect" : [ 376.0, 305.0, 19.0, 65.0 ],
					"presentation_rect" : [ 360.0, 305.0, 0.0, 0.0 ],
					"style" : ""
				}

			}
, 			{
				"box" : 				{
					"id" : "obj-4",
					"maxclass" : "gain~",
					"numinlets" : 1,
					"numoutlets" : 2,
					"outlettype" : [ "signal", "int" ],
					"parameter_enable" : 0,
					"patching_rect" : [ 339.0, 157.0, 22.0, 140.0 ],
					"presentation_rect" : [ 330.0, 157.0, 0.0, 0.0 ],
					"style" : ""
				}

			}
, 			{
				"box" : 				{
					"id" : "obj-5",
					"maxclass" : "meter~",
					"numinlets" : 1,
					"numoutlets" : 1,
					"outlettype" : [ "float" ],
					"patching_rect" : [ 339.0, 305.0, 19.0, 65.0 ],
					"presentation_rect" : [ 330.0, 305.0, 0.0, 0.0 ],
					"style" : ""
				}

			}
, 			{
				"box" : 				{
					"id" : "obj-3",
					"maxclass" : "gain~",
					"numinlets" : 1,
					"numoutlets" : 2,
					"outlettype" : [ "signal", "int" ],
					"parameter_enable" : 0,
					"patching_rect" : [ 376.0, 573.0, 22.0, 140.0 ],
					"presentation_rect" : [ 237.0, 287.0, 0.0, 0.0 ],
					"style" : ""
				}

			}
, 			{
				"box" : 				{
					"id" : "obj-1",
					"maxclass" : "gain~",
					"numinlets" : 1,
					"numoutlets" : 2,
					"outlettype" : [ "signal", "int" ],
					"parameter_enable" : 0,
					"patching_rect" : [ 339.0, 573.0, 22.0, 140.0 ],
					"presentation_rect" : [ 199.0, 287.0, 0.0, 0.0 ],
					"style" : ""
				}

			}
, 			{
				"box" : 				{
					"id" : "obj-17",
					"maxclass" : "newobj",
					"numinlets" : 3,
					"numoutlets" : 0,
					"patching_rect" : [ 302.0, 732.0, 93.0, 22.0 ],
					"style" : "",
					"text" : "dac~ 3 4 5"
				}

			}
, 			{
				"box" : 				{
					"id" : "obj-16",
					"maxclass" : "gain~",
					"numinlets" : 1,
					"numoutlets" : 2,
					"outlettype" : [ "signal", "int" ],
					"parameter_enable" : 0,
					"patching_rect" : [ 302.0, 573.0, 22.0, 140.0 ],
					"style" : ""
				}

			}
, 			{
				"box" : 				{
					"id" : "obj-15",
					"maxclass" : "gain~",
					"numinlets" : 1,
					"numoutlets" : 2,
					"outlettype" : [ "signal", "int" ],
					"parameter_enable" : 0,
					"patching_rect" : [ 303.0, 157.0, 22.0, 140.0 ],
					"style" : ""
				}

			}
, 			{
				"box" : 				{
					"id" : "obj-12",
					"maxclass" : "message",
					"numinlets" : 2,
					"numoutlets" : 1,
					"outlettype" : [ "" ],
					"patching_rect" : [ 303.0, 84.0, 29.5, 22.0 ],
					"style" : "",
					"text" : "1"
				}

			}
, 			{
				"box" : 				{
					"id" : "obj-25",
					"maxclass" : "meter~",
					"numinlets" : 1,
					"numoutlets" : 1,
					"outlettype" : [ "float" ],
					"patching_rect" : [ 303.0, 305.0, 19.0, 65.0 ],
					"style" : ""
				}

			}
, 			{
				"box" : 				{
					"id" : "obj-2",
					"maxclass" : "newobj",
					"numinlets" : 1,
					"numoutlets" : 3,
					"outlettype" : [ "signal", "signal", "signal" ],
					"patching_rect" : [ 303.0, 124.5, 67.0, 22.0 ],
					"style" : "",
					"text" : "adc~ 3 4 5"
				}

			}
 ],
		"lines" : [ 			{
				"patchline" : 				{
					"destination" : [ "obj-17", 1 ],
					"disabled" : 0,
					"hidden" : 0,
					"source" : [ "obj-1", 0 ]
				}

			}
, 			{
				"patchline" : 				{
					"destination" : [ "obj-2", 0 ],
					"disabled" : 0,
					"hidden" : 0,
					"source" : [ "obj-12", 0 ]
				}

			}
, 			{
				"patchline" : 				{
					"destination" : [ "obj-16", 0 ],
					"disabled" : 0,
					"hidden" : 0,
					"source" : [ "obj-14", 0 ]
				}

			}
, 			{
				"patchline" : 				{
					"destination" : [ "obj-18", 0 ],
					"disabled" : 0,
					"hidden" : 0,
					"source" : [ "obj-14", 2 ]
				}

			}
, 			{
				"patchline" : 				{
					"destination" : [ "obj-14", 0 ],
					"disabled" : 0,
					"hidden" : 0,
					"source" : [ "obj-15", 0 ]
				}

			}
, 			{
				"patchline" : 				{
					"destination" : [ "obj-25", 0 ],
					"disabled" : 0,
					"hidden" : 0,
					"source" : [ "obj-15", 0 ]
				}

			}
, 			{
				"patchline" : 				{
					"destination" : [ "obj-17", 0 ],
					"disabled" : 0,
					"hidden" : 0,
					"source" : [ "obj-16", 0 ]
				}

			}
, 			{
				"patchline" : 				{
					"destination" : [ "obj-15", 0 ],
					"disabled" : 0,
					"hidden" : 0,
					"source" : [ "obj-2", 0 ]
				}

			}
, 			{
				"patchline" : 				{
					"destination" : [ "obj-4", 0 ],
					"disabled" : 0,
					"hidden" : 0,
					"source" : [ "obj-2", 1 ]
				}

			}
, 			{
				"patchline" : 				{
					"destination" : [ "obj-6", 0 ],
					"disabled" : 0,
					"hidden" : 0,
					"source" : [ "obj-2", 2 ]
				}

			}
, 			{
				"patchline" : 				{
					"destination" : [ "obj-1", 0 ],
					"disabled" : 0,
					"hidden" : 0,
					"source" : [ "obj-22", 0 ]
				}

			}
, 			{
				"patchline" : 				{
					"destination" : [ "obj-16", 0 ],
					"disabled" : 0,
					"hidden" : 0,
					"source" : [ "obj-22", 0 ]
				}

			}
, 			{
				"patchline" : 				{
					"destination" : [ "obj-3", 0 ],
					"disabled" : 0,
					"hidden" : 0,
					"source" : [ "obj-22", 0 ]
				}

			}
, 			{
				"patchline" : 				{
					"destination" : [ "obj-15", 0 ],
					"disabled" : 0,
					"hidden" : 0,
					"source" : [ "obj-23", 0 ]
				}

			}
, 			{
				"patchline" : 				{
					"destination" : [ "obj-4", 0 ],
					"disabled" : 0,
					"hidden" : 0,
					"source" : [ "obj-23", 0 ]
				}

			}
, 			{
				"patchline" : 				{
					"destination" : [ "obj-6", 0 ],
					"disabled" : 0,
					"hidden" : 0,
					"source" : [ "obj-23", 0 ]
				}

			}
, 			{
				"patchline" : 				{
					"destination" : [ "obj-1", 0 ],
					"disabled" : 0,
					"hidden" : 0,
					"source" : [ "obj-24", 0 ]
				}

			}
, 			{
				"patchline" : 				{
					"destination" : [ "obj-17", 2 ],
					"disabled" : 0,
					"hidden" : 0,
					"source" : [ "obj-3", 0 ]
				}

			}
, 			{
				"patchline" : 				{
					"destination" : [ "obj-24", 0 ],
					"disabled" : 0,
					"hidden" : 0,
					"source" : [ "obj-4", 0 ]
				}

			}
, 			{
				"patchline" : 				{
					"destination" : [ "obj-5", 0 ],
					"disabled" : 0,
					"hidden" : 0,
					"source" : [ "obj-4", 0 ]
				}

			}
, 			{
				"patchline" : 				{
					"destination" : [ "obj-3", 0 ],
					"disabled" : 0,
					"hidden" : 0,
					"source" : [ "obj-6", 0 ]
				}

			}
, 			{
				"patchline" : 				{
					"destination" : [ "obj-7", 0 ],
					"disabled" : 0,
					"hidden" : 0,
					"source" : [ "obj-6", 0 ]
				}

			}
 ],
		"dependency_cache" : [ 			{
				"name" : "FuzzPlus3.maxsnap",
				"bootpath" : "~/Documents/Max 7/Snapshots",
				"type" : "mx@s",
				"implicit" : 1
			}
, 			{
				"name" : "BC Phaser 3 VST(Mono).maxsnap",
				"bootpath" : "~/Documents/Max 7/Snapshots",
				"type" : "mx@s",
				"implicit" : 1
			}
 ],
		"autosave" : 0,
		"styles" : [ 			{
				"name" : "AudioStatus_Menu",
				"default" : 				{
					"bgfillcolor" : 					{
						"type" : "color",
						"color" : [ 0.294118, 0.313726, 0.337255, 1 ],
						"color1" : [ 0.454902, 0.462745, 0.482353, 0.0 ],
						"color2" : [ 0.290196, 0.309804, 0.301961, 1.0 ],
						"angle" : 270.0,
						"proportion" : 0.39,
						"autogradient" : 0
					}

				}
,
				"parentstyle" : "",
				"multi" : 0
			}
, 			{
				"name" : "jpatcher001",
				"parentstyle" : "",
				"multi" : 0
			}
, 			{
				"name" : "jpink",
				"default" : 				{
					"bgcolor" : [ 0.862745, 0.870588, 0.878431, 1.0 ],
					"patchlinecolor" : [ 0.65, 0.65, 0.65, 1.0 ],
					"clearcolor" : [ 0.113725, 0.607843, 0.607843, 1.0 ],
					"bgfillcolor" : 					{
						"type" : "color",
						"color" : [ 0.619608, 0.0, 0.360784, 1.0 ],
						"color1" : [ 0.376471, 0.384314, 0.4, 1.0 ],
						"color2" : [ 0.290196, 0.309804, 0.301961, 1.0 ],
						"angle" : 270.0,
						"proportion" : 0.39,
						"autogradient" : 0
					}
,
					"color" : [ 0.619608, 0.0, 0.360784, 1.0 ],
					"accentcolor" : [ 0.619608, 0.0, 0.360784, 1.0 ],
					"elementcolor" : [ 0.619608, 0.0, 0.360784, 1.0 ],
					"textcolor" : [ 0.619608, 0.0, 0.360784, 1.0 ],
					"selectioncolor" : [ 0.619608, 0.0, 0.360784, 1.0 ]
				}
,
				"parentstyle" : "",
				"multi" : 0
			}
 ]
	}

}
